<svg xmlns="http://www.w3.org/2000/svg" xmlns:xlink="http://www.w3.org/1999/xlink" width="742.63" height="516.093" viewBox="0 0 742.63 516.093">
  <defs>
    <linearGradient id="linear-gradient" x1="0.5" x2="0.5" y2="1" gradientUnits="objectBoundingBox">
      <stop offset="0" stop-color="#d77edb"/>
      <stop offset="0.167" stop-color="#d17bdb"/>
      <stop offset="0.355" stop-color="#c272dd"/>
      <stop offset="0.576" stop-color="#a965e0"/>
      <stop offset="0.773" stop-color="#8652e4"/>
      <stop offset="1" stop-color="#623fe9"/>
    </linearGradient>
    <linearGradient id="linear-gradient-2" x1="0.139" y1="1.022" x2="0.888" y2="0.086" gradientUnits="objectBoundingBox">
      <stop offset="0" stop-color="#623fe9"/>
      <stop offset="1" stop-color="#5ddaf4"/>
    </linearGradient>
    <linearGradient id="linear-gradient-3" x1="-59.896" y1="1.049" x2="-59.839" y2="0.05" gradientUnits="objectBoundingBox">
      <stop offset="0" stop-color="#623fe9"/>
      <stop offset="0.026" stop-color="#6144e9"/>
      <stop offset="0.367" stop-color="#5f84ed"/>
      <stop offset="0.654" stop-color="#5eb2f1"/>
      <stop offset="0.874" stop-color="#5dcff3"/>
      <stop offset="1" stop-color="#5ddaf4"/>
    </linearGradient>
    <linearGradient id="linear-gradient-4" x1="0.742" y1="1.112" x2="0.776" y2="0.114" gradientUnits="objectBoundingBox">
      <stop offset="0" stop-color="#56408b"/>
      <stop offset="0.148" stop-color="#694997"/>
      <stop offset="1" stop-color="#d77edb"/>
    </linearGradient>
    <linearGradient id="linear-gradient-5" x1="0.262" y1="1.005" x2="0.83" y2="0.03" gradientUnits="objectBoundingBox">
      <stop offset="0" stop-color="#623fe9"/>
      <stop offset="0.269" stop-color="#8954e4"/>
      <stop offset="0.593" stop-color="#b36adf"/>
      <stop offset="0.848" stop-color="#cd78dc"/>
      <stop offset="1" stop-color="#d77edb"/>
    </linearGradient>
  </defs>
  <g id="Group_95" data-name="Group 95" transform="translate(-138 -853)">
    <path id="Path_124" data-name="Path 124" d="M2050.527,2032.98c0-143.351-116.207-302.916-259.557-302.916s-318.687,159.565-318.687,302.916,175.338,188.61,318.687,188.61S2050.527,2176.328,2050.527,2032.98Z" transform="translate(-1242.562 -852.605)" fill="url(#linear-gradient)"/>
    <g id="Group_94" data-name="Group 94" transform="translate(138 853)">
      <path id="Path_126" data-name="Path 126" d="M2077.539,2032.98c0-143.351-116.207-302.916-259.558-302.916s-259.557,159.565-259.557,302.916,116.207,188.61,259.557,188.61S2077.539,2176.328,2077.539,2032.98Z" transform="translate(-1334.909 -1705.496)" fill="url(#linear-gradient-2)"/>
      <g id="Group_36" data-name="Group 36" transform="translate(52.953 401.679)">
        <path id="Path_127" data-name="Path 127" d="M1465.329,2051.928c.144.072.287.14.433.209,4.49,2.148,6.875,1.787,11.25-.232a45.775,45.775,0,0,0,11.276-7.017c4.225-3.733,7.5-8.779,8.186-14.377a5.108,5.108,0,0,0-.6-3.654c-1.024-1.4-3.123-1.611-4.744-.985a14.365,14.365,0,0,0-4.185,3.053,4.755,4.755,0,0,1-1.847,1.183,1.729,1.729,0,0,1-1.949-.651c-.584-1.026.414-2.208,1.321-2.963,2.1-1.747,4.066-2.759,6.267-4.309a20.7,20.7,0,0,0,6.84-7.342,10.841,10.841,0,0,0,.278-9.755,5.93,5.93,0,0,0-2.009-2.291,7.158,7.158,0,0,0-5.3-.541,51.474,51.474,0,0,1-5.317,1.249c-4.286.445-5.971-2.571-5.885-6.516.057-2.645.911-5.216,1.064-7.856.269-4.65-2.027-9.6-6.238-11.592s-10.093-.086-11.6,4.322c-1.637,4.789,2.1,10.167-.373,14.744a13.957,13.957,0,0,1-4.054,4.427c-2.351,1.454-5.737-.255-8.473-.13a2.479,2.479,0,0,0-1.7.547,2.336,2.336,0,0,0-.529,1.222,10.132,10.132,0,0,0,3.065,9.238c2.834,2.579,7.747,3.894,8.952,7.932.749,2.507.425,8.759-3.566,8.125-1.5-.238-2.5-1.718-3.936-2.2a3.99,3.99,0,0,0-4.606,2.276,6.992,6.992,0,0,0,.133,5.469c1.092,2.753,3.2,4.96,5.253,7.091C1456.968,2044.991,1459.746,2049.175,1465.329,2051.928Z" transform="translate(-1446.849 -1976.755)" fill="url(#linear-gradient-3)"/>
        <g id="Group_33" data-name="Group 33" transform="translate(23.433 16.883)">
          <rect id="Rectangle_45" data-name="Rectangle 45" width="1.967" height="97.408" fill="#56408b"/>
        </g>
        <g id="Group_34" data-name="Group 34" transform="translate(12.421 33.07)">
          <path id="Path_128" data-name="Path 128" d="M1466.969,2011.773l12-12-1.39-1.391-10.605,10.605-10.6-10.605-1.39,1.391Z" transform="translate(-1454.974 -1998.387)" fill="#56408b"/>
        </g>
        <g id="Group_35" data-name="Group 35" transform="translate(12.421 55.767)">
          <path id="Path_129" data-name="Path 129" d="M1466.969,2026.621l12-12-1.39-1.391-10.605,10.605-10.6-10.605-1.39,1.391Z" transform="translate(-1454.974 -2013.235)" fill="#56408b"/>
        </g>
      </g>
      <g id="Group_40" data-name="Group 40" transform="translate(0 342.611)">
        <path id="Path_130" data-name="Path 130" d="M1459.136,2043.238c-.2.1-.4.2-.6.294-6.278,3-9.614,2.5-15.732-.324a64.084,64.084,0,0,1-15.768-9.813c-5.91-5.22-10.494-12.278-11.448-20.105-.216-1.757-.2-3.681.839-5.11,1.432-1.962,4.369-2.254,6.634-1.378s4.049,2.643,5.853,4.27a6.622,6.622,0,0,0,2.582,1.654,2.422,2.422,0,0,0,2.727-.911c.815-1.434-.581-3.085-1.848-4.141-2.934-2.444-5.687-3.858-8.765-6.026-3.864-2.721-7.442-6.046-9.564-10.27s-2.6-9.463-.388-13.64a8.3,8.3,0,0,1,2.81-3.2c2.156-1.361,4.921-1.291,7.414-.757s4.9,1.483,7.435,1.745c5.994.624,8.35-3.594,8.23-9.111-.08-3.7-1.275-7.292-1.487-10.985-.376-6.5,2.832-13.429,8.722-16.21s14.115-.119,16.221,6.045c2.29,6.7-2.936,14.218.521,20.619a19.557,19.557,0,0,0,5.671,6.19c3.288,2.035,8.021-.356,11.849-.182a3.458,3.458,0,0,1,2.371.766,3.256,3.256,0,0,1,.738,1.708,14.166,14.166,0,0,1-4.286,12.917c-3.961,3.606-10.832,5.447-12.518,11.092-1.047,3.508-.593,12.251,4.988,11.364,2.094-.335,3.5-2.4,5.5-3.083,2.484-.841,5.33.809,6.442,3.183a9.776,9.776,0,0,1-.185,7.648c-1.527,3.849-4.47,6.935-7.345,9.917C1470.829,2033.537,1466.943,2039.388,1459.136,2043.238Z" transform="translate(-1412.209 -1938.115)" fill="url(#linear-gradient-4)"/>
        <g id="Group_37" data-name="Group 37" transform="translate(37.643 23.609)">
          <rect id="Rectangle_46" data-name="Rectangle 46" width="1.967" height="149.751" fill="#56408b"/>
        </g>
        <g id="Group_38" data-name="Group 38" transform="translate(22.129 46.523)">
          <path id="Path_131" data-name="Path 131" d="M1443.182,1986.436l-16.5-16.5,1.39-1.39,15.107,15.107,15.107-15.107,1.391,1.39Z" transform="translate(-1426.685 -1968.548)" fill="#56408b"/>
        </g>
        <g id="Group_39" data-name="Group 39" transform="translate(22.129 78.262)">
          <path id="Path_132" data-name="Path 132" d="M1443.182,2007.2l-16.5-16.5,1.39-1.39,15.107,15.107,15.107-15.107,1.391,1.39Z" transform="translate(-1426.685 -1989.31)" fill="#56408b"/>
        </g>
      </g>
      <g id="Group_55" data-name="Group 55" transform="translate(469.762 407.877)">
        <g id="Group_47" data-name="Group 47" transform="translate(126.964 6.951)">
          <g id="Group_41" data-name="Group 41" transform="translate(0 0)">
            <rect id="Rectangle_47" data-name="Rectangle 47" width="2.706" height="111.606" transform="matrix(0.892, -0.452, 0.452, 0.892, 0, 1.224)" fill="#413068"/>
          </g>
          <g id="Group_42" data-name="Group 42" transform="translate(35.883 0.375)">
            <rect id="Rectangle_48" data-name="Rectangle 48" width="2.706" height="111.606" transform="matrix(0.892, -0.452, 0.452, 0.892, 0, 1.224)" fill="#413068"/>
          </g>
          <g id="Group_43" data-name="Group 43" transform="translate(6.978 10.639)">
            <rect id="Rectangle_49" data-name="Rectangle 49" width="35.69" height="2.703" fill="#413068"/>
          </g>
          <g id="Group_44" data-name="Group 44" transform="translate(18.731 33.823)">
            <rect id="Rectangle_50" data-name="Rectangle 50" width="35.69" height="2.703" fill="#413068"/>
          </g>
          <g id="Group_45" data-name="Group 45" transform="translate(30.484 57.005)">
            <rect id="Rectangle_51" data-name="Rectangle 51" width="35.69" height="2.703" fill="#413068"/>
          </g>
          <g id="Group_46" data-name="Group 46" transform="translate(42.237 80.189)">
            <rect id="Rectangle_52" data-name="Rectangle 52" width="35.692" height="2.703" fill="#413068"/>
          </g>
        </g>
        <g id="Group_54" data-name="Group 54" transform="translate(0 6.963)">
          <g id="Group_48" data-name="Group 48" transform="translate(35.878 0)">
            <rect id="Rectangle_53" data-name="Rectangle 53" width="111.606" height="2.706" transform="translate(0 99.519) rotate(-63.088)" fill="#413068"/>
          </g>
          <g id="Group_49" data-name="Group 49" transform="translate(0 0.374)">
            <rect id="Rectangle_54" data-name="Rectangle 54" width="111.606" height="2.706" transform="matrix(0.453, -0.892, 0.892, 0.453, 0, 99.521)" fill="#413068"/>
          </g>
          <g id="Group_50" data-name="Group 50" transform="translate(46.118 10.627)">
            <rect id="Rectangle_55" data-name="Rectangle 55" width="35.69" height="2.703" fill="#413068"/>
          </g>
          <g id="Group_51" data-name="Group 51" transform="translate(34.365 33.811)">
            <rect id="Rectangle_56" data-name="Rectangle 56" width="35.69" height="2.703" fill="#413068"/>
          </g>
          <g id="Group_52" data-name="Group 52" transform="translate(22.609 56.993)">
            <rect id="Rectangle_57" data-name="Rectangle 57" width="35.693" height="2.703" fill="#413068"/>
          </g>
          <g id="Group_53" data-name="Group 53" transform="translate(10.856 80.177)">
            <rect id="Rectangle_58" data-name="Rectangle 58" width="35.69" height="2.703" fill="#413068"/>
          </g>
        </g>
        <rect id="Rectangle_59" data-name="Rectangle 59" width="152.35" height="9.379" transform="translate(34.196)" fill="#fff"/>
      </g>
      <g id="Group_56" data-name="Group 56" transform="translate(566.12 272.876)">
        <path id="Path_133" data-name="Path 133" d="M1853.659,1943.095l8.93-.009a3.273,3.273,0,0,0,3.272-3.276l-.009-11.39a3.273,3.273,0,0,0-3.276-3.271l-6.989.006a2.752,2.752,0,0,1-2.56-1.83q-.37-.979-.8-1.931a2.75,2.75,0,0,1,.51-3.108l4.942-4.945a3.273,3.273,0,0,0,0-4.63l-8.056-8.051a3.275,3.275,0,0,0-4.63,0l-4.979,4.982a2.7,2.7,0,0,1-2.981.571c-.711-.3-1.48-.612-2.14-.869a2.693,2.693,0,0,1-1.712-2.515v-7.061a3.274,3.274,0,0,0-3.275-3.274h-11.39a3.273,3.273,0,0,0-3.273,3.274v6.992a2.753,2.753,0,0,1-1.83,2.556c-.685.256-1.361.54-2.024.844a2.748,2.748,0,0,1-3.108-.5l-4.96-4.933a3.272,3.272,0,0,0-4.629.014l-8.031,8.077a3.272,3.272,0,0,0,.013,4.629l5,4.97a2.7,2.7,0,0,1,.579,2.979c-.3.711-.607,1.478-.864,2.141a2.69,2.69,0,0,1-2.51,1.715l-7.062.019a3.272,3.272,0,0,0-3.265,3.282l.027,11.39a3.274,3.274,0,0,0,3.282,3.267l6.99-.018a2.752,2.752,0,0,1,2.563,1.827q.37.977.8,1.928a2.752,2.752,0,0,1-.5,3.108l-4.936,4.954a3.275,3.275,0,0,0,.011,4.63l8.07,8.038a3.274,3.274,0,0,0,4.63-.009l4.971-4.993a2.706,2.706,0,0,1,2.981-.576c.711.3,1.478.609,2.14.865a2.691,2.691,0,0,1,1.715,2.513l.012,7.061a3.273,3.273,0,0,0,3.279,3.268l11.39-.018a3.274,3.274,0,0,0,3.268-3.279l-.011-6.991a2.753,2.753,0,0,1,1.827-2.562q.979-.369,1.929-.8a2.752,2.752,0,0,1,3.108.509l4.951,4.937a3.271,3.271,0,0,0,4.629,0l8.045-8.063a3.274,3.274,0,0,0-.006-4.631l-4.988-4.976a2.7,2.7,0,0,1-.573-2.981C1852.875,1945.242,1853.623,1943.214,1853.659,1943.095Zm-45.332-11.853a16.142,16.142,0,1,1,10.053,17.957A16.146,16.146,0,0,1,1808.328,1931.241Z" transform="translate(-1782.542 -1892.497)" fill="#56408b"/>
      </g>
      <g id="Group_78" data-name="Group 78" transform="translate(239.001)">
        <g id="Group_62" data-name="Group 62" transform="translate(0 470.579)">
          <g id="Group_57" data-name="Group 57" transform="translate(8.549)">
            <rect id="Rectangle_60" data-name="Rectangle 60" width="47.858" height="38.559" fill="#f1f2f2"/>
          </g>
          <g id="Group_58" data-name="Group 58" transform="translate(0 36.992)">
            <rect id="Rectangle_61" data-name="Rectangle 61" width="64.956" height="8.399" fill="#56408b"/>
          </g>
          <g id="Group_59" data-name="Group 59" transform="translate(17.848 17.98)">
            <rect id="Rectangle_62" data-name="Rectangle 62" width="29.259" height="2.598" fill="#56408b"/>
          </g>
          <g id="Group_60" data-name="Group 60" transform="translate(17.848 23.8)">
            <rect id="Rectangle_63" data-name="Rectangle 63" width="29.259" height="2.598" fill="#56408b"/>
          </g>
          <g id="Group_61" data-name="Group 61" transform="translate(17.848 29.621)">
            <rect id="Rectangle_64" data-name="Rectangle 64" width="29.259" height="2.598" fill="#56408b"/>
          </g>
        </g>
        <g id="Group_68" data-name="Group 68" transform="translate(182.062 470.579)">
          <g id="Group_63" data-name="Group 63" transform="translate(8.55)">
            <rect id="Rectangle_65" data-name="Rectangle 65" width="47.858" height="38.559" fill="#f1f2f2"/>
          </g>
          <g id="Group_64" data-name="Group 64" transform="translate(0 36.992)">
            <rect id="Rectangle_66" data-name="Rectangle 66" width="64.957" height="8.399" fill="#56408b"/>
          </g>
          <g id="Group_65" data-name="Group 65" transform="translate(17.848 17.98)">
            <rect id="Rectangle_67" data-name="Rectangle 67" width="29.26" height="2.598" fill="#56408b"/>
          </g>
          <g id="Group_66" data-name="Group 66" transform="translate(17.848 23.8)">
            <rect id="Rectangle_68" data-name="Rectangle 68" width="29.26" height="2.598" fill="#56408b"/>
          </g>
          <g id="Group_67" data-name="Group 67" transform="translate(17.848 29.621)">
            <rect id="Rectangle_69" data-name="Rectangle 69" width="29.26" height="2.598" fill="#56408b"/>
          </g>
        </g>
        <g id="Group_69" data-name="Group 69" transform="translate(63.214)">
          <path id="Path_134" data-name="Path 134" d="M1731.124,2169.32H1609.906V1810.861A108.552,108.552,0,0,1,1652.012,1725l9.064-7.012a15.425,15.425,0,0,1,18.88,0l10.19,7.884a105.661,105.661,0,0,1,40.978,83.57Z" transform="translate(-1609.906 -1713.587)" fill="url(#linear-gradient-5)"/>
          <path id="Path_135" data-name="Path 135" d="M1671.731,1726.4l-12.764-9.86c-7.157-5.529-11.957-.839-15.657,2.652.393,1.023,7.749-3.961,7.957-3.8l5.93,1.553c26.325,20.334,37.676,61.17,37.676,94.436v356.4a1.947,1.947,0,0,0,1.946,1.948h14.7a1.948,1.948,0,0,0,1.946-1.948v-356.4A107.377,107.377,0,0,0,1671.731,1726.4Z" transform="translate(-1592.246 -1713.993)" fill="#525d7a" opacity="0.15"/>
          <path id="Path_136" data-name="Path 136" d="M1678.786,1720.185l-5.025-3.882c-3.978-3.072-5.3-.969-6.112-1.256l-3.841-.61c-.636.555-1.364,1.167-2.27,1.866l-5.836,4.509a110.025,110.025,0,0,0-40.375,85.129V2169.49h22.309V1805.941A110.022,110.022,0,0,1,1678.786,1720.185Z" transform="translate(-1607.04 -1713.758)" fill="#fff" opacity="0.3"/>
        </g>
        <g id="Group_70" data-name="Group 70" transform="translate(1.742 157.871)">
          <path id="Path_137" data-name="Path 137" d="M1631.165,2143.373h-61.472V1890.717a111.452,111.452,0,0,1,25.549-71.009h0a6.729,6.729,0,0,1,10.375,0h0a111.46,111.46,0,0,1,25.548,71.009Z" transform="translate(-1569.694 -1817.266)" fill="#fff"/>
          <path id="Path_138" data-name="Path 138" d="M1623.479,1855.576a111.425,111.425,0,0,0-19.836-35.868h0a6.729,6.729,0,0,0-10.375,0h0a111.426,111.426,0,0,0-19.838,35.868Z" transform="translate(-1567.719 -1817.266)" fill="#56408b"/>
          <path id="Path_139" data-name="Path 139" d="M1594.724,1819.681a6.64,6.64,0,0,0-4.424-2.362c14.816,19.424,14.478,48.862,14.478,73.371v252.656h15.493V1890.689A111.459,111.459,0,0,0,1594.724,1819.681Z" transform="translate(-1558.8 -1817.237)" fill="#525d7a" opacity="0.15"/>
        </g>
        <g id="Group_71" data-name="Group 71" transform="translate(183.805 145.848)">
          <path id="Path_140" data-name="Path 140" d="M1741.914,1852.663a111.449,111.449,0,0,0-14.8-40.032h0a6.73,6.73,0,0,0-10.268-1.488h0a114.108,114.108,0,0,0-25.373,34.208Z" transform="translate(-1687.375 -1809.401)" fill="#56408b"/>
          <path id="Path_141" data-name="Path 141" d="M1744.3,1842.987c3.394,10.765,5.964,22.678,5.964,34.132v252.656h-61.472V1877.119a111.466,111.466,0,0,1,5.343-34.1Z" transform="translate(-1688.792 -1791.644)" fill="#fff"/>
          <path id="Path_142" data-name="Path 142" d="M1694.26,1842.759a121.293,121.293,0,0,0-5.468,34.481V2129.9h15.493V1877.24c0-10.213-.058-23.638.945-34.481Z" transform="translate(-1688.792 -1791.764)" fill="#525d7a" opacity="0.15"/>
        </g>
        <path id="Path_143" data-name="Path 143" d="M1797.34,2110.277v-47.389a65.815,65.815,0,0,0-19.887-46.992c-8.643-8.382-17.694-17.568-25.361-27.938l-15.762-21.319V1876.9a89.916,89.916,0,0,0-34.727-70.706l-3.065-2.367a10.984,10.984,0,0,0-5.415-2.2c-1.383-1.342-1.312-1.342-2.7,0a11.018,11.018,0,0,0-5.415,2.2l-2.27,1.755a91.958,91.958,0,0,0-35.521,72.315v86.685l-17.286,23.38c-7.666,10.371-16.721,19.557-25.364,27.938a65.819,65.819,0,0,0-19.885,46.992v47.389h62.535v15.444h89.108v-15.444Z" transform="translate(-1560.025 -1668.196)" fill="#231f20" opacity="0.3"/>
        <g id="Group_77" data-name="Group 77" transform="translate(19.287 137.453)">
          <rect id="Rectangle_70" data-name="Rectangle 70" width="56.337" height="45.391" transform="translate(76.686 302.389)" fill="#f1f2f2"/>
          <rect id="Rectangle_71" data-name="Rectangle 71" width="76.465" height="9.887" transform="translate(66.622 345.935)" fill="#56408b"/>
          <path id="Path_144" data-name="Path 144" d="M1581.171,2055.61h71.163V1900.628l-26.264,35.522c-7.556,10.217-16.435,19.312-25.557,28.16a63.672,63.672,0,0,0-19.342,45.7Z" transform="translate(-1581.171 -1752.776)" fill="#56408b"/>
          <path id="Path_145" data-name="Path 145" d="M1612.842,1931.392V2055.61h22.747V1900.628Z" transform="translate(-1564.427 -1752.776)" fill="#312075" opacity="0.3"/>
          <path id="Path_146" data-name="Path 146" d="M1742.548,2055.077h-71.162V1900.792l26.264,35.361c7.555,10.172,16.435,19.226,25.557,28.033a63.259,63.259,0,0,1,19.341,45.5Z" transform="translate(-1533.476 -1752.689)" fill="#56408b"/>
          <path id="Path_147" data-name="Path 147" d="M1695.567,1931.392V2055.61H1672.82V1900.628Z" transform="translate(-1532.718 -1752.776)" fill="#312075" opacity="0.3"/>
          <path id="Path_148" data-name="Path 148" d="M1707.192,2121.9H1622.28V1871.208a75.877,75.877,0,0,1,29.494-60.051l5.292-4.087a12.544,12.544,0,0,1,7.669-2.617h0a12.547,12.547,0,0,1,7.67,2.617l6.081,4.7a73.848,73.848,0,0,1,28.706,58.443Z" transform="translate(-1559.438 -1803.621)" fill="#fff"/>
          <path id="Path_149" data-name="Path 149" d="M1667.249,1809.917c-.04-.032-.076-.066-.116-.1l-7.653-5.911-6.858,5.3a76.437,76.437,0,0,0-29.707,60.488v252.494h15.493V1869.694A76.418,76.418,0,0,1,1667.249,1809.917Z" transform="translate(-1559.101 -1803.909)" fill="#525d7a" opacity="0.1"/>
          <path id="Path_150" data-name="Path 150" d="M1631.505,1827.172l56.631-.46a73.793,73.793,0,0,0-14.527-14.945l-6.081-4.7a12.548,12.548,0,0,0-15.338,0l-5.292,4.089A75.781,75.781,0,0,0,1631.505,1827.172Z" transform="translate(-1554.56 -1803.621)" fill="#56408b"/>
          <g id="Group_72" data-name="Group 72" transform="translate(119.113 76.719)">
            <path id="Path_151" data-name="Path 151" d="M1669.728,1877.617a2.6,2.6,0,0,1-2.6-2.6,22.381,22.381,0,0,0-7.2-16.413,2.6,2.6,0,1,1,3.517-3.82,27.575,27.575,0,0,1,8.88,20.234A2.6,2.6,0,0,1,1669.728,1877.617Z" transform="translate(-1659.09 -1854.095)" fill="#56408b"/>
          </g>
          <g id="Group_73" data-name="Group 73" transform="translate(77.36 70.146)">
            <path id="Path_152" data-name="Path 152" d="M1634.375,1879.89a2.6,2.6,0,0,1-2.6-2.6,27.506,27.506,0,0,1,38.2-25.332,2.6,2.6,0,1,1-2.024,4.785,22.315,22.315,0,0,0-30.978,20.547A2.6,2.6,0,0,1,1634.375,1879.89Z" transform="translate(-1631.777 -1849.796)" fill="#56408b"/>
          </g>
          <g id="Group_74" data-name="Group 74" transform="translate(87.633 323.785)">
            <rect id="Rectangle_72" data-name="Rectangle 72" width="34.443" height="2.598" fill="#56408b"/>
          </g>
          <g id="Group_75" data-name="Group 75" transform="translate(87.633 330.636)">
            <rect id="Rectangle_73" data-name="Rectangle 73" width="34.443" height="2.598" fill="#56408b"/>
          </g>
          <g id="Group_76" data-name="Group 76" transform="translate(87.633 337.486)">
            <rect id="Rectangle_74" data-name="Rectangle 74" width="34.443" height="2.598" fill="#56408b"/>
          </g>
        </g>
      </g>
      <g id="Group_81" data-name="Group 81" transform="translate(578.059 241.032)">
        <rect id="Rectangle_75" data-name="Rectangle 75" width="6.652" height="7.285" transform="translate(35.743 251.233)" fill="#f6f6f6"/>
        <rect id="Rectangle_76" data-name="Rectangle 76" width="6.652" height="7.286" transform="translate(100.788 249.432) rotate(-26.197)" fill="#f6f6f6"/>
        <path id="Path_153" data-name="Path 153" d="M1869.845,1955.092l-11.088,24.075-23.154,34.845-10.424,67.157h-13.621l4.435-63.4,13.938-45.256,3.484-17.422Z" transform="translate(-1779.141 -1827.561)" fill="#56408b"/>
        <g id="Group_79" data-name="Group 79" transform="translate(49.142 137.433)" opacity="0.3">
          <path id="Path_154" data-name="Path 154" d="M1857.265,1966.422l-31.614-4.854-1.5,7.521-1.648,5.349a107.168,107.168,0,0,1,7.431,35.982l23.043-34.678Z" transform="translate(-1822.499 -1961.569)" fill="#2b2046"/>
        </g>
        <rect id="Rectangle_77" data-name="Rectangle 77" width="13.933" height="16.155" transform="translate(90.161 38.043)" fill="#fff"/>
        <path id="Path_155" data-name="Path 155" d="M1860.115,1904.353l17.693.9v3.485s7.286,9.82,6.969,14.888-19.641,56.387-22.492,58.287h-36.43s14.572-38.33,15.522-42.447c0,0,4.435-20.592,12.355-26.926C1853.733,1912.544,1859.866,1908.181,1860.115,1904.353Z" transform="translate(-1771.582 -1854.385)" fill="#85b9e5"/>
        <path id="Path_156" data-name="Path 156" d="M1866.949,1908.429v-3.485h-5.031v3.485s7.284,9.82,6.968,14.888-19.641,56.387-22.49,58.287h5.031c2.851-1.9,22.174-53.218,22.492-58.287S1866.949,1908.429,1866.949,1908.429Z" transform="translate(-1760.723 -1854.073)" fill="#525d7a" opacity="0.2"/>
        <path id="Path_157" data-name="Path 157" d="M1852.639,1938.984l-10.459-13.4,9.485-8.2c3.239-3.366,5.7-2.766,9.065.474l.385.592c3.366,3.239,4.7,5.564,3.363,9.056Z" transform="translate(-1762.952 -1848.69)" fill="#525d7a" opacity="0.2"/>
        <path id="Path_158" data-name="Path 158" d="M1851.717,1938.176l-10.779-14.088,11.407-8.728a8.867,8.867,0,0,1,12.432,1.657h0a8.871,8.871,0,0,1-1.658,12.434Z" transform="translate(-1763.609 -1849.531)" fill="#85b9e5"/>
        <path id="Path_159" data-name="Path 159" d="M1834.951,1941.589c-1.558,4.265-3.344,9.073-5.029,13.582l8.226-3.872,20.956-16.883-8.163-10.672Z" transform="translate(-1769.432 -1844.133)" fill="#525d7a" opacity="0.2"/>
        <path id="Path_160" data-name="Path 160" d="M1817.542,1965.3l34.317-16.155,20.957-16.883-8.163-10.672L1847.53,1940.7l-31.1,19.437,1.215,1.469-6.263.277c-2.675.116-9.892-.91-12.743,2.047l12.566,1.373Z" transform="translate(-1785.97 -1845.27)" fill="#fff"/>
        <path id="Path_161" data-name="Path 161" d="M1870.538,1926.628l-20.973,16.9-35.014,17.72-8.805-.38-3.394-1.328a7.026,7.026,0,0,0-3.71,1.736l12.566,1.373h6.335l34.317-16.155,20.957-16.884Z" transform="translate(-1785.97 -1842.609)" fill="#525d7a" opacity="0.15"/>
        <path id="Path_162" data-name="Path 162" d="M1863.384,1955.092s2.216,10.771,0,17.74a38.261,38.261,0,0,1-5.386,11.031l3.186,33.908,24.078,58.1-13.009,3.875-17.732-30.215L1844.06,2029.1l-20.281-58.128,3.175-15.88Z" transform="translate(-1772.68 -1827.56)" fill="#56408b"/>
        <path id="Path_163" data-name="Path 163" d="M1858.6,1956.35s2.218,10.771,0,17.739a38.261,38.261,0,0,1-5.384,11.032l3.184,33.908,24.031,57.976,3.822-1.137-24.078-58.1-3.186-33.908a38.263,38.263,0,0,0,5.385-11.031c2.218-6.969,0-17.74,0-17.74h-36.43l-.25,1.258Z" transform="translate(-1771.669 -1827.56)" fill="#2b2046" opacity="0.2"/>
        <path id="Path_164" data-name="Path 164" d="M1872.453,1910.7h-20.139a5.726,5.726,0,0,1-5.726-5.726v-6.523h-4.129c-.882-6.719,5.365-11.563,6.426-14.963,1.617-5.173-2.3-7-2.3-7h25.865Z" transform="translate(-1762.849 -1869.118)" fill="#fff"/>
        <rect id="Rectangle_78" data-name="Rectangle 78" width="40.125" height="5.655" transform="translate(52.585 125.631)" fill="#2b2046"/>
        <path id="Path_165" data-name="Path 165" d="M1811.559,1951.183l-4.161-4.019a1.473,1.473,0,0,1-.648-1.981h0a1.474,1.474,0,0,1,1.981-.648l5.429,2.752a1.474,1.474,0,0,1,.648,1.981h0C1814.438,1949.994,1812.285,1951.55,1811.559,1951.183Z" transform="translate(-1781.768 -1833.226)" fill="#f6f6f6"/>
        <path id="Path_166" data-name="Path 166" d="M1834.528,2039.217h-12.121l-5.054,5.712h-10.384a17.394,17.394,0,0,0-15.506,9.515h43.065Z" transform="translate(-1789.765 -1783.085)" fill="#5ddaf4"/>
        <circle id="Ellipse_2" data-name="Ellipse 2" cx="3.801" cy="3.801" r="3.801" transform="translate(34.793 259.944)" fill="#fff"/>
        <rect id="Rectangle_79" data-name="Rectangle 79" width="46.461" height="3.579" transform="translate(0 271.359)" fill="#56408b"/>
        <path id="Path_167" data-name="Path 167" d="M1875.517,2035.425l-11.177,4.69-2.451,7.222-12.112.215c-6.038,2.533-7.607,2.64-8.084,9.169h22.42l17.293-7.254Z" transform="translate(-1763.209 -1785.09)" fill="#5ddaf4"/>
        <path id="Path_168" data-name="Path 168" d="M1866.845,2041.423a3.8,3.8,0,1,1-4.976-2.035A3.8,3.8,0,0,1,1866.845,2041.423Z" transform="translate(-1753.775 -1783.151)" fill="#fff"/>
        <rect id="Rectangle_80" data-name="Rectangle 80" width="25.289" height="3.579" transform="translate(77.558 271.109)" fill="#56408b"/>
        <rect id="Rectangle_81" data-name="Rectangle 81" width="18.895" height="3.579" transform="translate(101.431 271.398) rotate(-23.188)" fill="#56408b"/>
        <path id="Path_169" data-name="Path 169" d="M1867.67,1910.7H1871v-34.212h-25.865a5.3,5.3,0,0,1,2.54,5.818,8.263,8.263,0,0,0,4.6.5,4.889,4.889,0,0,1,2.811.451,9.433,9.433,0,0,1,4.2,4.4c.79,1.666,1.128,6.329,1.279,8.165.161,1.955,1.024,6.055-.083,7.718-.826,1.236-3.588.524-4.958-.058-2.889-1.227-5.088-3.791-9.255-3.883a1.782,1.782,0,0,0-1.136.488v4.885a5.726,5.726,0,0,0,5.726,5.726h.7v5.537c.464.035.932.055,1.392.064,3.192.063,5.885,1.04,8.836-.646,3.371-2.012,2.2-6.211,1.974-9.348-.151-2.086-.168-4.257-.275-6.3-.07-1.316-.183-2.77,1.157-3.676,2.316-1.566,4.609,1.174,4.65,3.4a34.728,34.728,0,0,1-.385,7.9C1868.72,1908.377,1867.968,1909.6,1867.67,1910.7Z" transform="translate(-1761.392 -1869.118)" fill="#525d7a" opacity="0.15"/>
        <path id="Path_170" data-name="Path 170" d="M1847.512,1900.776c4.166.092,6.367,2.656,9.255,3.883,1.37.582,3.2.648,4.03-.588,1.108-1.664.411-5.326.251-7.28-.15-1.837-.481-5.8-1.273-7.46-.826-1.74-1.605-4.047-3.442-4.9a4.887,4.887,0,0,0-2.81-.451c-4.091.613-6.277-1.136-9.3-3.837a8.84,8.84,0,0,1-1.715-1.914,10.218,10.218,0,0,1-1.012-5.29,1.7,1.7,0,0,1,.184-.966c.267-.4,2.141.567,2.525.858,2.386,1.8,6.288,3.169,9.357,2.541,2.871-.587,4.895-3.094,7.861-2.943,3.141.161,5.994,2.437,8.01,4.7a6.3,6.3,0,0,0,2.684.059,5.73,5.73,0,0,1,5.193,1.7c1.665,1.9,1.042,5.115,1.109,7.507s-.42,4.7-.4,7.052a36.2,36.2,0,0,1-.918,10.045c-.326,1.223,0,2.432-.566,3.512a37.852,37.852,0,0,0-1.5,4.418,4.376,4.376,0,0,1-1.315,2.067c-.812.6-4.028.955-4.713-.038-.806-1.166.046-3.666.327-4.815a33.755,33.755,0,0,0,1.2-7.724c-.043-2.224-2.336-4.965-4.652-3.4a4.092,4.092,0,0,0-1.666,3.729c.107,2.038.224,4.157.376,6.243.23,3.137.977,7.4-2.394,9.415-2.949,1.685-4.815.644-8.007.579a8.453,8.453,0,0,1-4.467-.92,7.962,7.962,0,0,1-3.34-4.484c-.393-1.279-.97-2.593-1.363-3.872a14.154,14.154,0,0,1-.1-4.173C1844.961,1902.76,1846.246,1900.749,1847.512,1900.776Z" transform="translate(-1763.314 -1871.554)" fill="#413068"/>
        <g id="Group_80" data-name="Group 80" transform="translate(77.6)">
          <path id="Path_171" data-name="Path 171" d="M1841.3,1874.6a1.171,1.171,0,0,1,1.3-.363,4,4,0,0,1,1.23.74c2.387,1.8,6.281,3.649,9.351,3.02,2.871-.587,4.87-3.719,7.836-3.566,3.141.16,6.558,2.517,8.574,4.777a3.458,3.458,0,0,0,1.967-.106c1.9-.336,4.167,1.032,5.37,2.409a5.454,5.454,0,0,1,1.133,3.34c.073-2.073.171-4.363-1.133-5.855a5.79,5.79,0,0,0-5.121-2,4.373,4.373,0,0,1-2.216-.3,13.266,13.266,0,0,0-8.6-4.2c-2.966-.153-4.941,2.4-7.812,2.988-3.07.628-6.964-1.22-9.351-3.021a4.066,4.066,0,0,0-1.23-.74,1.174,1.174,0,0,0-1.3.363,1.7,1.7,0,0,0-.184.966c.006.614.031,1.237.077,1.856A.959.959,0,0,1,1841.3,1874.6Z" transform="translate(-1841.115 -1871.666)" fill="#56408b"/>
        </g>
      </g>
      <g id="Group_86" data-name="Group 86" transform="translate(443.316 145.374)">
        <path id="Path_946" data-name="Path 946" d="M0,0H11.32V11.692H0Z" transform="translate(125.441 240.286) rotate(-24.449)" fill="#e6e0ff"/>
        <path id="Path_172" data-name="Path 172" d="M1761.253,1941.51l10.691,26.265,25.365,40.632,12.359-5.581-25.465-47.891-18.967-60.792Z" transform="translate(-1670.993 -1764.125)" fill="#d77edb"/>
        <path id="Path_173" data-name="Path 173" d="M1789.8,1970.027l-.863.381-4.035,9.8-2.239,3.431-7.02,1.926.013,2.877,8.279.159,25.49-10.744.532-3.443-3.515-7.958-2.226-.392-1.734.766-2.249,5.805-8,3.419Z" transform="translate(-1663.385 -1726.1)" fill="#fff"/>
        <path id="Path_174" data-name="Path 174" d="M1809.949,1974.4l-3.506-7.938-2.226-.392-1.734.766-2.249,5.805-8,3.419-2.434-6.029-.863.381-4.035,9.8-2.239,3.431-7.02,1.926,0,.73h6.087Z" transform="translate(-1663.385 -1726.1)" fill="#56408b"/>
        <rect id="Rectangle_83" data-name="Rectangle 83" width="11.32" height="11.692" transform="translate(86.277 243.265)" fill="#e6e0ff"/>
        <path id="Path_175" data-name="Path 175" d="M1744.66,1880.231l14.682,85.239,6.491,53.9h11.74s1-50.415-2.432-57.229l2.432-58.388h0a36.824,36.824,0,0,0,1.082-17.653h0a12.978,12.978,0,0,0-3.126-6.349l-.388-.432Z" transform="translate(-1679.765 -1771.962)" fill="#f8aa8f"/>
        <path id="Path_176" data-name="Path 176" d="M1773.3,1969.954c-.665-7.734-1.542-14.07-2.691-16.152l.167-41.892-5.545-17.766-3.982,47.366,10.69,26.266Z" transform="translate(-1670.993 -1764.125)" fill="#525d7a" opacity="0.2"/>
        <path id="Path_177" data-name="Path 177" d="M1744.66,1880.231l14.682,85.239,6.491,53.9h11.74s1-50.415-2.432-57.229l2.432-58.388h0a36.824,36.824,0,0,0,1.082-17.653h0a12.978,12.978,0,0,0-3.126-6.349l-.388-.432Z" transform="translate(-1679.765 -1771.962)" fill="#d77edb"/>
        <path id="Path_178" data-name="Path 178" d="M1764.8,1970.936h-.943l-7.652,7.337-12.158,4.611v3.145h35.541l1.877-2.935v-8.7l-1.877-1.258h-1.9l-4.4,4.4-8.7-.105Z" transform="translate(-1680.091 -1723.526)" fill="#fff"/>
        <path id="Path_179" data-name="Path 179" d="M1777.616,1973.137l-4.4,4.4-8.7-.105.209-6.5h-.943l-7.651,7.337-11.949,4.532h37.209v-8.41l-1.877-1.258Z" transform="translate(-1680.019 -1723.526)" fill="#56408b"/>
        <rect id="Rectangle_84" data-name="Rectangle 84" width="11.634" height="11.32" transform="translate(85.753 32.751)" fill="#e6e0ff"/>
        <path id="Path_180" data-name="Path 180" d="M1758.655,1835.259a15.3,15.3,0,0,0,9.357-6.349l-10.239,2.154Z" transform="translate(-1672.832 -1798.612)" fill="#525d7a" opacity="0.15"/>
        <path id="Path_181" data-name="Path 181" d="M1758.093,1815.473l-.525,6.289s-2.411,4.926-4.612,6.184c0,0,.42,1.677,1.573,1.783l-.07,8.155a3.968,3.968,0,0,0,3.967,4h3.812a15.324,15.324,0,0,0,14.583-10.618l2.967-9.192-4.3-9.013-10.8-.63A6.782,6.782,0,0,0,1758.093,1815.473Z" transform="translate(-1675.38 -1807.354)" fill="#e6e0ff"/>
        <path id="Path_182" data-name="Path 182" d="M1761.939,1841.774a15.288,15.288,0,0,0,13.194-10.507l2.967-9.192-4.3-9.013-10.8-.63a6.783,6.783,0,0,0-6.6,3.041l-.254,3.057a19.611,19.611,0,0,0,4.021,2.486,13.472,13.472,0,0,1,2.106.85,6.4,6.4,0,0,1,1.4,2.47c.135.336.248.68.394,1.011.625,1.409,2.729,2.444,2.684,4.1a2.444,2.444,0,0,1-1.1,1.717,5.963,5.963,0,0,0-1.548,1.414c-.628,1.023-.314,2.34.043,3.487.327,1.055.787,2.457.193,3.505C1763.835,1840.463,1762.7,1841.036,1761.939,1841.774Z" transform="translate(-1673.691 -1807.354)" fill="#525d7a" opacity="0.15"/>
        <path id="Path_183" data-name="Path 183" d="M1757.8,1812.248c-2.444,2.894-.318,6.623,2.062,8.788a18.493,18.493,0,0,0,4.676,2.975,13.557,13.557,0,0,1,2.107.85,6.42,6.42,0,0,1,1.4,2.47c.134.337.247.68.394,1.01.627,1.409,2.73,2.444,2.686,4.1a2.446,2.446,0,0,1-1.1,1.718,5.96,5.96,0,0,0-1.548,1.414c-.627,1.023-.313,2.341.043,3.487.328,1.053.788,2.455.194,3.506-.556.984-1.9,1.57-2.641,2.429-.825.96-1.9,1.567-2.692,2.589-1.161,1.494-1.406,3.58-2.548,4.944-1.223,1.46-3.383,2.253-4.919,3.333-1.8,1.264-3.434,3.2-3.238,5.385,3.3-1.145,7.416.549,10.221-1.543.51-.379.935-.864,1.434-1.26a22.707,22.707,0,0,1,4.146-2.048,10.025,10.025,0,0,0,3.5-2.944,9.371,9.371,0,0,0,4.256.154,10.039,10.039,0,0,0,9.192-5.3q.756-1.062,1.516-2.123c.462-.647.925-1.295,1.356-1.963,2.36-3.654,3.779-8.084,3.086-12.378-.61-3.79-2.769-7.124-4.878-10.332q-2.5-3.8-5-7.607a10.677,10.677,0,0,0-2.142-2.607,8.076,8.076,0,0,0-2.666-1.3,29.116,29.116,0,0,0-10.175-.807C1763.347,1809.357,1759.844,1809.825,1757.8,1812.248Z" transform="translate(-1675.541 -1809.09)" fill="#85b9e5"/>
        <path id="Path_184" data-name="Path 184" d="M1772.872,1865.6l-16.465-2.313a14.861,14.861,0,0,1-7.888-3.933l-27.677-26.24-3.264-2.117-9.433-3.784-5.17-4.013c-1.486-1.376-.593-2.476.821-2.327l4.036,3.31,1.886.786,1.1-.628-6.446-6.446c.027-.5,1.069-1.278,1.572-1.258l5.818,5.5,1.31-1.2-6.575-7.169c-.867-1.218,1.438-1.638,3.558.313l4.221,5.858,1.258-.471-3.973-8.225c.349-.57,1.627.457,2.208.786,2.194,1.243,5.381,7.752,5.381,7.752l2.2.63,1.258-2.044-.471-2.673,3.563,3.631-.457,5.667,25.665,23.876,23.022,5.338Z" transform="translate(-1702.208 -1808.043)" fill="#e6e0ff"/>
        <g id="Group_82" data-name="Group 82" transform="translate(0 12.813)" opacity="0.15">
          <path id="Path_185" data-name="Path 185" d="M1757.665,1857.384a14.865,14.865,0,0,1-7.888-3.932l-27.677-26.24-3.263-2.119-8.969-3.6-.15.086-1.886-.786-4.036-3.312c-1.414-.148-2.306.953-.821,2.328l5.17,4.013,9.433,3.783,3.264,2.117,27.677,26.24a14.863,14.863,0,0,0,7.888,3.933l16.465,2.313.246-2.658Z" transform="translate(-1702.208 -1817.472)" fill="#525d7a"/>
        </g>
        <g id="Group_83" data-name="Group 83" transform="translate(77.11 0.476)" opacity="0.15">
          <path id="Path_186" data-name="Path 186" d="M1755.819,1812.97c1.269-1.952,3.45-2.95,5.756-3.568a8.709,8.709,0,0,0-5.257,2.681,4.4,4.4,0,0,0-.865,1.662A4.47,4.47,0,0,1,1755.819,1812.97Z" transform="translate(-1751.17 -1809.402)" fill="#525d7a"/>
          <path id="Path_187" data-name="Path 187" d="M1760.827,1852.172c1.39-1.262,3.435-2.316,4.468-3.916.963-1.5.948-3.6,1.916-5.223.661-1.113,1.65-1.848,2.35-2.9.628-.945,1.889-1.694,2.32-2.738.46-1.116-.17-2.449-.627-3.455-.5-1.093-.97-2.362-.474-3.455a5.939,5.939,0,0,1,1.36-1.6,2.449,2.449,0,0,0,.882-1.841c-.161-1.648-2.377-2.414-3.172-3.735-.188-.308-.342-.637-.516-.953a6.408,6.408,0,0,0-1.694-2.278,13.535,13.535,0,0,0-2.2-.583,19.777,19.777,0,0,1-4.259-1.946,21.011,21.011,0,0,0,3.352,1.984,13.7,13.7,0,0,1,2.107.852,6.42,6.42,0,0,1,1.4,2.47c.136.335.247.681.394,1.01.627,1.409,2.73,2.445,2.686,4.1a2.445,2.445,0,0,1-1.1,1.718,5.962,5.962,0,0,0-1.548,1.414c-.627,1.022-.313,2.34.043,3.487.328,1.053.788,2.455.194,3.505-.556.985-1.9,1.57-2.641,2.429-.825.96-1.9,1.567-2.692,2.59-1.161,1.494-1.406,3.58-2.548,4.944-1.223,1.46-3.383,2.253-4.919,3.333-1.8,1.264-3.434,3.2-3.238,5.386a17.058,17.058,0,0,1,5.586-.42A7.7,7.7,0,0,1,1760.827,1852.172Z" transform="translate(-1752.651 -1805.093)" fill="#525d7a"/>
        </g>
        <path id="Path_188" data-name="Path 188" d="M1775.528,1879.752l-.388-.432-30.481.911,1.356,7.87c11.506-2.826,24.191,13.1,33.172,6.774a36.75,36.75,0,0,0-.534-8.773A12.978,12.978,0,0,0,1775.528,1879.752Z" transform="translate(-1679.765 -1771.962)" fill="#525d7a" opacity="0.2"/>
        <path id="Path_189" data-name="Path 189" d="M1778.883,1834.486s9.629,3.573,10.1,12.219l-11.571,38.99,3.255,22.241c-10.131,8.995-25.172-6.1-38.064,3.491l12.421-49.473h0a12.692,12.692,0,0,1-1.752-10.908l.361-1.206,12.661-10.205Z" transform="translate(-1680.853 -1795.664)" fill="#56408b"/>
        <g id="Group_84" data-name="Group 84" transform="translate(61.75 64.462)" opacity="0.2">
          <path id="Path_190" data-name="Path 190" d="M1756.477,1851.259l-2.316.4a12.473,12.473,0,0,0,.862,1.427L1742.6,1902.56a16.754,16.754,0,0,1,2.956-1.757l11.98-47.716A12.525,12.525,0,0,1,1756.477,1851.259Z" transform="translate(-1742.603 -1851.259)" fill="#2b2046"/>
          <path id="Path_191" data-name="Path 191" d="M1750.3,1882.677c6.629.35,13.275,3.164,19.112,2.744C1763.448,1885.045,1756.815,1882.315,1750.3,1882.677Z" transform="translate(-1738.535 -1834.666)" fill="#2b2046"/>
        </g>
        <path id="Path_192" data-name="Path 192" d="M1772.722,1839.565l-13.91.589-8.686,7-.361,1.206a12.688,12.688,0,0,0,.9,9.485l19.148-3.458Z" transform="translate(-1677.347 -1792.979)" fill="#2b2046" opacity="0.2"/>
        <path id="Path_193" data-name="Path 193" d="M1773.147,1837.92l-23.562,1-1.154,14.118,25.9,1.918Z" transform="translate(-1677.772 -1793.849)" fill="#56408b"/>
        <path id="Path_194" data-name="Path 194" d="M1785.345,1829.514c-.016-1.767-.093-3.7-1.248-5.034a7.575,7.575,0,0,0-1.935-1.457,12.092,12.092,0,0,0-1.868-.97c-2.947-1.124-6.247.168-8.964,1.772a19.755,19.755,0,0,0-4.587,3.588,11.483,11.483,0,0,0-1.659,2.3,2.635,2.635,0,0,0-.287,2.538c.844,3.008,1.2,6.171,2.458,9.031s3.727,5.48,6.841,5.724c-1.563,5.395.168,10.426,1.023,15.262a24.494,24.494,0,0,0,2.49-3.909c1.2-2.063,2.408-4.127,3.562-6.219a41.921,41.921,0,0,0,3.65-8.076C1786.236,1839.362,1785.4,1834.351,1785.345,1829.514Z" transform="translate(-1669.224 -1802.462)" fill="#85b9e5"/>
        <g id="Group_85" data-name="Group 85" transform="translate(81.276)">
          <path id="Path_195" data-name="Path 195" d="M1790.221,1836.143a18.4,18.4,0,0,0-.131-2.12,13.917,13.917,0,0,0-.156-2.18c-.61-3.79-2.769-7.124-4.878-10.332q-2.5-3.8-5-7.607a10.645,10.645,0,0,0-2.142-2.607,8.094,8.094,0,0,0-2.666-1.3,29.116,29.116,0,0,0-10.175-.807c-3.166.169-6.669.637-8.715,3.06a4.394,4.394,0,0,0-.981,2.072c2.062-1.891,5.182-2.345,8.041-2.536a29.125,29.125,0,0,1,10.184.671,8.076,8.076,0,0,1,2.684,1.266,10.683,10.683,0,0,1,2.177,2.579l5.1,7.54c2.152,3.179,4.355,6.484,5.016,10.265a14,14,0,0,1,.185,2.179,18.747,18.747,0,0,1,.16,2.119c.115,4.836,1.021,9.835-.332,14.556a28.421,28.421,0,0,1-1.113,3.091,33.335,33.335,0,0,0,2.217-5.353C1791.112,1845.991,1790.271,1840.979,1790.221,1836.143Z" transform="translate(-1755.376 -1809.09)" fill="#85b9e5"/>
        </g>
      </g>
      <g id="Group_93" data-name="Group 93" transform="translate(100.146 224.371)">
        <rect id="Rectangle_85" data-name="Rectangle 85" width="11.785" height="12.825" transform="translate(55.079 280.681) rotate(180)" fill="#fff"/>
        <rect id="Rectangle_86" data-name="Rectangle 86" width="10.416" height="11.806" transform="matrix(-0.848, -0.531, 0.531, -0.848, 16.388, 277.418)" fill="#fff"/>
        <path id="Path_196" data-name="Path 196" d="M1517.2,2060.791h-13.841l-25.641-14.715,7.284-12.092,1.312,1.167-1,4.38,11.347,6.546,2.623-3.786,2.331,1.165,1.747,7.284,4.883,4.078,3.579.234a5.751,5.751,0,0,1,5.379,5.74Z" transform="translate(-1477.721 -1769.191)" fill="#85b9e5"/>
        <path id="Path_197" data-name="Path 197" d="M1513.175,2003.15l-28.674,48.408,10.19,5.94,19.97-23.376Z" transform="translate(-1474.137 -1785.492)" fill="#56408b"/>
        <path id="Path_198" data-name="Path 198" d="M1517.2,2057.868h-13.841l-25.641-14.715,2.194-3.64,26.2,14.83c.867-3.523,2.134-2.449,2.134-2.449l3.579.232A5.754,5.754,0,0,1,1517.2,2057.868Z" transform="translate(-1477.721 -1766.268)" fill="#56408b"/>
        <path id="Path_199" data-name="Path 199" d="M1500.741,2009.645l3.848-6.5,1.486,30.971-3.938,4.61Z" transform="translate(-1465.551 -1785.492)" fill="#2b2046" opacity="0.3"/>
        <path id="Path_200" data-name="Path 200" d="M1539.527,1961.33v5.642a29.009,29.009,0,0,1-.988,7.506l-15.221,56.856s.373,45.175-.928,52.225H1507.6l-2.706-56.411,1.32-47.577h0a38.524,38.524,0,0,1-6.168-20.755l-.016-3.74h39.5Z" transform="translate(-1465.926 -1810.908)" fill="#56408b"/>
        <path id="Path_201" data-name="Path 201" d="M1512.865,2026.947l15.221-56.856a28.885,28.885,0,0,0,.977-6.712l4.16,0a28.931,28.931,0,0,1-.977,6.716l-15.221,56.856s.373,45.176-.928,52.224h-4.159C1513.238,2072.122,1512.865,2026.947,1512.865,2026.947Z" transform="translate(-1459.632 -1806.52)" fill="#2b2046" opacity="0.3"/>
        <path id="Path_202" data-name="Path 202" d="M1503.472,2057.754h44.483v-1.675a5.372,5.372,0,0,0-5.372-5.373h-1.906l-15.657-10.976H1523l.115,3.235-17.447.116-.693-3.351h-1.5Z" transform="translate(-1464.107 -1766.153)" fill="#85b9e5"/>
        <path id="Path_203" data-name="Path 203" d="M1547.955,2052.282v1.675h-44.483v-3.236h34.236c-.309-3.235,2.969-3.812,2.969-3.812h1.906A5.373,5.373,0,0,1,1547.955,2052.282Z" transform="translate(-1464.107 -1762.358)" fill="#56408b"/>
        <path id="Path_204" data-name="Path 204" d="M1554.587,1925.76h0a6.646,6.646,0,0,0-5.578-3.033h-7.83a6.649,6.649,0,0,0-4.577,1.827l-.387.368h-12.94v3.222l31.312-.018Z" transform="translate(-1453.638 -1828.01)" fill="#fff"/>
        <path id="Path_205" data-name="Path 205" d="M1500.032,1898.338l12.564,9.877,10.722-13.637-5.708-11.011a8.649,8.649,0,0,0-9.966-4.358h0l-1.3,8.819a13.339,13.339,0,0,1-3.329,7.032Z" transform="translate(-1465.926 -1851.181)" fill="#fff"/>
        <g id="Group_90" data-name="Group 90" transform="translate(72.508 60.733)">
          <path id="Rectangle_87" data-name="Rectangle 87" d="M.787,0H46.155a.787.787,0,0,1,.787.787V3.579a.788.788,0,0,1-.788.788H.788A.788.788,0,0,1,0,3.579V.787A.787.787,0,0,1,.787,0Z" transform="matrix(-1, -0.001, 0.001, -1, 46.942, 42.607)" fill="#f5f7f9"/>
          <path id="Path_206" data-name="Path 206" d="M1525.154,1927.265a1.992,1.992,0,0,1,.494-1.284,2.029,2.029,0,0,0,2.029,2.023l42.878.028a1.994,1.994,0,0,0,1.539-.746v.312a2.032,2.032,0,0,1-2.033,2.031l-42.878-.027a2.03,2.03,0,0,1-2.03-2.033Z" transform="translate(-1525.152 -1887.023)" fill="#dfe2ec"/>
          <path id="Path_207" data-name="Path 207" d="M1554.791,1938.238l.072.041a.614.614,0,0,0,.836-.235l20.547-36.592a.613.613,0,0,0-.234-.835l-.073-.041a.613.613,0,0,0-.835.234l-20.547,36.594A.612.612,0,0,0,1554.791,1938.238Z" transform="translate(-1509.649 -1900.496)" fill="#dfe2ec"/>
          <g id="Group_87" data-name="Group 87" transform="translate(14.308 39.386)">
            <rect id="Rectangle_88" data-name="Rectangle 88" width="4.017" height="1.54" fill="#191c3c"/>
          </g>
          <g id="Group_88" data-name="Group 88" transform="translate(9.549 39.384)">
            <rect id="Rectangle_89" data-name="Rectangle 89" width="4.016" height="1.54" fill="#191c3c"/>
          </g>
          <g id="Group_89" data-name="Group 89" transform="translate(35.024 39.402)">
            <rect id="Rectangle_90" data-name="Rectangle 90" width="4.017" height="1.54" fill="#191c3c"/>
          </g>
        </g>
        <path id="Path_208" data-name="Path 208" d="M1508.03,1881.891l.19-2.735a8.622,8.622,0,0,1,5.184,4.274l5.708,11.011-2.956,3.759-2.817-2.672A17.162,17.162,0,0,1,1508.03,1881.891Z" transform="translate(-1461.719 -1851.045)" fill="#525d7a" opacity="0.15"/>
        <path id="Path_209" data-name="Path 209" d="M1536.613,1877.692v8.557l-3.005,1.733-.209,8.319-2.678-1.156-3.438,5.393a5.805,5.805,0,0,1-8.232,1.63l-4.36-3.063a17.167,17.167,0,0,1-7.241-12.717l-.877-11.346,1.624-1.356a30.023,30.023,0,0,1,25-6.417l1.341.263,1.373,4.957A19.493,19.493,0,0,1,1536.613,1877.692Z" transform="translate(-1462.469 -1857.624)" fill="#fff"/>
        <path id="Path_210" data-name="Path 210" d="M1506.571,1875.043l1.624-1.356a30.023,30.023,0,0,1,25-6.417l1.341.263,1.373,4.956a19.509,19.509,0,0,1,.708,5.2v.714a6.992,6.992,0,0,1-2.107-.725c-.781-.434-.764-.642-1.507-.2-.483.284-.878.729-1.38,1.011a7.215,7.215,0,0,1-6.619.252.847.847,0,0,0-.591-.139c-.209.06-.327.275-.422.473-2.51,5.216-5.034,4.742-4.907,3.326a5.043,5.043,0,0,0-1.122-3.975c-1.176-1.212-3.236-1.955-4.742-1.192s-2.882,1.486-3.293,3.124-.995,4.816-.666,6.471c.251,1.269-1.669,1.333-1.807-.438Z" transform="translate(-1462.469 -1857.624)" fill="#525d7a" opacity="0.15"/>
        <path id="Path_211" data-name="Path 211" d="M1505.555,1883.644c.053-1.981.017-3.97.254-5.937.488-4.057,2.126-8.931,4.843-12.066a6.176,6.176,0,0,1,4.641-2.329c.874.023,1.87.472,2.741.208.767-.232,1.215-1.015,1.79-1.515a5.629,5.629,0,0,1,3.1-1.148,16.257,16.257,0,0,1,12.086,3.707c1.086.919,2.044,1.976,3.062,2.967,2.6,2.528,5.411,5.361,9.323,4.146.122-.038.289-.064.351.049a.275.275,0,0,1,.023.133,5.674,5.674,0,0,1-2.292,4.271,13.639,13.639,0,0,1-4.5,2.146,12.165,12.165,0,0,1-3.2.661,7,7,0,0,1-3.632-.884c-.781-.434-.764-.642-1.507-.205-.483.284-.876.729-1.381,1.011a7.215,7.215,0,0,1-6.619.252.847.847,0,0,0-.592-.139.773.773,0,0,0-.422.472c-1.042,2.243-1.25,4.782-2.1,7.105a1.067,1.067,0,0,1-.394.592,1.117,1.117,0,0,1-.683.074l-2.568-.269c.252-1.4.711-2.759.838-4.175a5.041,5.041,0,0,0-1.122-3.974,4.1,4.1,0,0,0-4.692-.616,6,6,0,0,0-2.929,3.942,11.539,11.539,0,0,0,.046,5.025c.252,1.269.576,2.724-.219,3.742a3.949,3.949,0,0,1-1.864,1.119q-1.637.589-3.314,1.053A66.651,66.651,0,0,0,1505.555,1883.644Z" transform="translate(-1463.496 -1860.767)" fill="#413068"/>
        <g id="Group_91" data-name="Group 91" transform="translate(41.131)">
          <path id="Path_212" data-name="Path 212" d="M1538.072,1870.3c-1.018-.991-1.977-2.048-3.062-2.967a16.257,16.257,0,0,0-12.086-3.707,5.629,5.629,0,0,0-3.1,1.148c-.575.5-1.022,1.282-1.79,1.517-.871.263-1.867-.187-2.741-.209a6.177,6.177,0,0,0-4.641,2.33c-2.717,3.135-4.355,8.009-4.843,12.066-.237,1.967-.2,3.956-.254,5.938-.06,2.181-.265,4.355-.538,6.52-.131.037-.258.087-.39.124a66.651,66.651,0,0,0,.928-9.417c.053-1.981.017-3.97.254-5.937.488-4.057,2.126-8.931,4.843-12.066a6.176,6.176,0,0,1,4.641-2.329c.874.023,1.87.472,2.741.208.767-.232,1.215-1.015,1.79-1.515a5.629,5.629,0,0,1,3.1-1.148,16.257,16.257,0,0,1,12.086,3.707c1.086.919,2.044,1.976,3.062,2.967,2.6,2.528,5.411,5.361,9.323,4.146.122-.038.289-.064.351.049a.275.275,0,0,1,.023.133,4.93,4.93,0,0,1-.881,2.689C1543.243,1875.37,1540.552,1872.718,1538.072,1870.3Z" transform="translate(-1504.627 -1860.767)" fill="#413068"/>
          <path id="Path_213" data-name="Path 213" d="M1508.05,1877.166q.08.66.208,1.31a5.992,5.992,0,0,1,.07,3.146c-.024-.124-.046-.252-.07-.373A12.737,12.737,0,0,1,1508.05,1877.166Z" transform="translate(-1502.861 -1852.097)" fill="#413068"/>
          <path id="Path_214" data-name="Path 214" d="M1514.136,1877.68a12.458,12.458,0,0,1-.26,1.463l-.578-.061c.21-1.154.522-2.288.708-3.444A6.5,6.5,0,0,1,1514.136,1877.68Z" transform="translate(-1500.042 -1852.905)" fill="#413068"/>
        </g>
        <path id="Path_215" data-name="Path 215" d="M1514.8,1892.815l-.205-.145c.229-.451.491-.888.757-1.315l2.661-4.269c.682-1.095,1.483-2.28,2.733-2.6a4.266,4.266,0,0,1,2.36.237,12.922,12.922,0,0,1,3.076,1.518l-3.149,4.941A5.807,5.807,0,0,1,1514.8,1892.815Z" transform="translate(-1458.224 -1848.269)" fill="#413068"/>
        <path id="Path_216" data-name="Path 216" d="M1516.4,1892.454c.162-.316.346-.625.534-.926l1.876-3.01a3.618,3.618,0,0,1,1.927-1.83,3,3,0,0,1,1.663.168,8.624,8.624,0,0,1,1.329.582l-1.639,2.571a5.776,5.776,0,0,1-5.384,2.637c-.052-.034-.11-.054-.161-.09Z" transform="translate(-1457.274 -1847.094)" fill="#f6f6f6"/>
        <path id="Path_217" data-name="Path 217" d="M1500.035,1955.076h39.5v11.9c0,.209-.036.415-.04.624-11.531,1.544-28.059-8.082-39.376-6.721a9.44,9.44,0,0,1-.064-2.058Z" transform="translate(-1465.929 -1810.908)" fill="#2b2046" opacity="0.3"/>
        <path id="Path_218" data-name="Path 218" d="M1504.019,1891.161l-4.172,6.116c-1.5,2.2-2.368,5.136-3.332,7.59a44.175,44.175,0,0,0-2.831,12.381v6.726a35.513,35.513,0,0,0,.818,7.571l4.464,20.414a59.191,59.191,0,0,1,.9,20.015l-2.894,21.62c12.132-8.77,38.7,8.29,51.866.277l-7.283-38.925a102.956,102.956,0,0,0-1.127-11.931l-1.845-12.028a64.567,64.567,0,0,0-15.264-32.766l-2.431-2.775Z" transform="translate(-1469.282 -1844.698)" fill="#85b9e5"/>
        <g id="Group_92" data-name="Group 92" transform="translate(24.402 46.463)" opacity="0.15">
          <path id="Path_219" data-name="Path 219" d="M1496.515,1904.867c.965-2.454,1.83-5.389,3.332-7.59l4.172-6.116,2.363.6-3.762,5.516c-1.5,2.2-2.368,5.136-3.333,7.59a44.174,44.174,0,0,0-2.831,12.381v6.726a35.418,35.418,0,0,0,.818,7.571l4.464,20.414a59.188,59.188,0,0,1,.905,20.015l-2.69,20.1a12.21,12.21,0,0,0-2.976,1.516l2.894-21.62a59.191,59.191,0,0,0-.9-20.015l-4.464-20.414a35.513,35.513,0,0,1-.818-7.571v-6.726A44.175,44.175,0,0,1,1496.515,1904.867Z" transform="translate(-1493.684 -1891.161)" fill="#312075"/>
        </g>
        <path id="Path_220" data-name="Path 220" d="M1516.693,1908.39l9.725,35.5,36.192.916,1.039,6.275L1525.5,1956.7a11.528,11.528,0,0,1-12.208-6.711l-15.541-34.88a7.97,7.97,0,0,1,4.818-10.824l3.991-1.3A7.971,7.971,0,0,1,1516.693,1908.39Z" transform="translate(-1467.495 -1838.651)" fill="#85b9e5"/>
        <path id="Path_221" data-name="Path 221" d="M1501.15,1913.2l13.637,30.606a11.527,11.527,0,0,0,12.208,6.711l36.343-5.358.416,2.508-38.145,5.622a11.528,11.528,0,0,1-12.208-6.711l-15.541-34.88C1494.6,1905.5,1500.3,1912.015,1501.15,1913.2Z" transform="translate(-1467.6 -1835.235)" fill="#312075" opacity="0.15"/>
        <path id="Path_222" data-name="Path 222" d="M1540.93,1938.662l15.252-2.686,6.845-2.426,2.81-3.921a3.342,3.342,0,0,0-.407-4.36l-.582-.558-6.068,6.066-16.636-.174-2.107,3.4Z" transform="translate(-1444.776 -1826.961)" fill="#fff"/>
        <path id="Path_223" data-name="Path 223" d="M1540.93,1936.32l15.252-2.686.772-.273a16.87,16.87,0,0,0,9.164-7.809h0v2.623l-3.1,4.355-6.836,3-15.252,2.686-.893-4.661.277-.448Z" transform="translate(-1444.776 -1826.517)" fill="#525d7a" opacity="0.15"/>
      </g>
    </g>
  </g>
</svg>
